<svg xmlns="http://www.w3.org/2000/svg" id="Layer_2" data-name="Layer 2" viewBox="0 0 648.29 246.6"><defs><style>      .cls-1, .cls-2 {        fill: #fff;      }      .cls-2, .cls-3 {        fill-rule: evenodd;      }      .cls-3, .cls-4 {        fill: #ff5421;      }    </style></defs><g id="Layer_1-2" data-name="Layer 1"><path class="cls-3" d="m158.24,55.57c315.37-60.12,490.44,13.9,336.75,163.53,188.36-145.76-11.16-241.63-336.75-163.53Z"></path><path class="cls-3" d="m523.52,18.23c139.87,53.08,152.44,143.3-11.21,228.37,179.5-75.55,179.27-179.98,11.21-228.37h0Z"></path><path class="cls-2" d="m133.43,46.62C350.09-17.89,651.9,9.62,581.9,174.48,677.38,26.66,395.21-47.42,133.43,46.62h0Z"></path><path class="cls-2" d="m157.6,13.06c-1.26-.4-3.26-.27-6.01.38-.51-.25-.66-1.15-.45-2.72,3.33-1.51,4.45-2.78,3.4-3.8,3.67-2.45,4.92-4.08,3.75-4.88,0-1.15-.39-1.82-1.18-2.04-3.73,1.91-7.44,4.78-11.13,8.61-3.2,4.73-7.64,9.11-13.34,13.14-7.74,4.25-13.27,7.44-16.57,9.57-2.16,2.69-5.57,5.28-10.28,7.76.24.51.47,1.23.69,2.16-1.09-2.2-2.6-4-4.53-5.39-1.45,2.3-4.34,4.59-8.66,6.88,1.52.04,3.47.57,5.85,1.58-7.06-1.83-13.32-.49-18.76,4,1.08-.06,2.58.31,4.48,1.08-1.87-.31-3.47-.34-4.81-.07-2.49.45-4.22,1.41-5.18,2.87-3.05,1.28-5.49,1.47-7.31.54-.82,1.38-2.01,2.87-3.58,4.47,1.11-1.62,2.39-3.13,3.03-4.71.76-1.86,1.28-5.3,1.45-7.28.02-1.22-.51-2.78-.56-4.66-.18-1.94-1.09-3.04-2.75-3.32-.13-.66-.36-1.36-.65-2.12-1.14-1.97-2.77-3.36-4.98-3.9-2.32-.57-5.13-.53-8.45.08,2.97-.83,6.18-1.01,8.55-.48.61-2.95-2.51-3.84-6.98-3.5-7.67.6-14.77,9.37-11.33,16.31,1.17,3.47,3.77,6.71,7.8,9.71.86,1.02,2.04,2.94,3.55,5.76-.64.69-1.2,1.64-1.69,2.84.27.52.48,1.61.63,3.3-.55-1.66-1.23-2.67-2.01-3.04-7.54,2.92-11.67,6.49-12.39,10.72-1.01,3.04-.42,6.71,1.77,11.02-1.13-1.42-2-2.59-2.62-3.5-.45,2.78-1.04,5.37-1.76,7.8-.11,1.76.52,4.73,1.91,8.91-1.19-2.03-2.07-3.97-2.62-5.84-2.33-.82-4.58-2.98-6.75-6.5-1.52-2.28-3.24-3.8-5.18-4.58.34-.03,1.04.03,2.12.2-.64-2.37-1.34-4.49-2.12-6.35-1.59-1.81-3.91-3.33-6.94-4.53-.34-4.67-.99-8.74-1.97-12.23,0,0-.4-7.31-1.21-21.95-.09-1.66.48-1.89,1.59-2.87,4.16-3.72,4.02-10.85,3.72-16.04-.27-4.76-1.95-15.11-8.86-14.14-2.75.39-4.01,2.19-4.94,4.57-.96,2.49-1.49,5.57-1.42,9.41.1,5.07.61,15.06,6.25,16.72,1.68.48,2.22.64,2.42,2.56.36,3.29.85,10.25,1.47,21.59-.25,2.62-.27,6.18-.07,10.7-.2.04-.43.11-.69.26-.57.02-1.66,1.17-1.31,2.49,0,0,.49.49.67,1.04.12.37-.78.74-.75,1.22.05.68.75.91.81,1.56.09.92-.75,1.03-.78,1.26-.11,1.03.63,1.13,1.02,1.98.22.47-.91.88-.67,1.32.61,1.1,2.61,2.04,2.84,2.01.07,1.25.15,2.66.23,4.22,1.53.17,2.54-.21,3.05-1.13.71.18,1.34.26,1.88.25,1.56,5.68,4.76,11.63,9.62,17.88,3.35,5.91,7.1,7.69,11.23,5.34,2.5-1.34,4.76-4.95,6.8-10.83.7-1.61,1.28-3.29,1.7-4.99.17,1.46.57,2.72,1.21,3.79.69,1.49,2.71,2.4,6.06,2.74-4.55-.06-6.76.72-6.61,2.34-.24,4.47,1.95,7.22,6.6,8.26-2.73-.15-5.37-.67-7.94-1.57-3.76,3.53-2.99,7.22,2.32,11.09-1.49-.43-3.3-1.07-5.44-1.91-.27,1.61-.27,3.88.03,6.82,1.53.44,4,.77,7.45.98-1.81,0-3.6.17-5.39.53-2.2,1.63-3.61,3.21-4.24,4.73-.54,1.68-.91,5.18-1.11,10.49-.04,1.15-.07,2.39-.1,3.71-.26-1.24-.45-2.62-.59-4.14-.05-.45-.08-.91-.11-1.4-.19.3-.4.61-.61.95-1.39,2.15-3.18,5.09-4.92,8.84-.85,1.79-1.66,3.76-2.42,5.91-.78,1.85-.02,4.47.24,8.01-.47-1.44-.77-2.73-.9-3.88-2.37,1.96-3.8,4.29-4.28,6.98-2.03.4-4.78,2.69-8.28,6.84.86-1.71,2.1-3.21,3.52-4.48-2.09-.07-4.56,1.28-7.2,4.03-6.92,5.38-11.85,11.34-14.8,17.88-.72,5.81,1.74,7.91,7.35,6.29,3.6-3.65,6.67-6.56,9.21-8.76,2.91-1.31,4.32-2.94,4.23-4.88.75-.16,2.13-.22,3.6-.18,0-.24-.02-1.38.52-3.42-.06,1.74-.02,2.88.1,3.42,5.1,2.64,9.21,2.7,12.33.21,3.91,0,7.28-2.99,10.1-8.94-1.32-.43-2.74-1.09-4.25-2.01,1.7.68,4.76,1.42,6.47,1.43,2.52-1.97,3.91-5.78,4.93-10.63-.82,1.07-2.54,1.93-5.18,2.57,2.29-.94,4.75-3,7.34-6.2,1.54-1.89,3.12-4.17,4.77-6.84,0,0,.02-.03.02-.05v.06c-.02,2.54.06,5.45.27,8.69.25,3.93.69,8.38,1.29,13.33,1.47-.31,2.89-.02,4.25.89-1.15-.39-2.2-.46-3.15-.26-.71,4.77-1.36,8.82-1.96,12.13-.38-1.43-.56-3.02-.5-4.78-5.47,2.07-9.79,5.17-12.94,9.26-.98,1.36-1.35,4.08-1.11,8.16-.33-1.16-.57-2.54-.71-4.13-2.49,2.29-5.85,5.06-10.12,8.31-1.35,1.19-2.62,2.08-3.83,2.66-1.3.47-2.57.54-3.83.21-7.36-2.07-10.08,1.24-8.15,9.91.82.95,1.53,2.66,2.14,5.11-2.58,7.27-2.31,13.85.81,19.73,3.19,4.46,5.57,3.33,7.15-3.37-.1-3.5.5-6.68,1.82-9.52,1.82-3.54,4.03-5.37,6.67-5.48,1.51-.86,1.47-2.46-.13-4.81,1.07-.77,2.55-1.95,4.48-3.58-1.19-.73-2.32-1.81-3.37-3.25.68.64,1.66,1.28,2.92,1.91,9.06-4.77,19.26-11.42,30.64-19.97,2.42-.9,4.12-3.22,5.09-6.99-.52.45-1.24.89-2.17,1.28,1.8-1.66,3.54-4.17,5.24-7.55-1.03-.12-2.54-.61-4.51-1.44,1.63.38,3.46.74,5.52,1.08,1.59-3.54,2.93-7.3,4.03-11.28.49-1.77.94-3.58,1.32-5.44,1.49-7.08,2.28-14.78,2.35-23.1-.11-4.71-.76-9.53-1.97-14.45-2.56.11-4.25.05-5.05-.21,4.11-.44,7.22-1.12,9.31-2.06-.65-1.79-.83-3.92-.5-6.39-.53.5-1.25.81-2.13.9,2.45-1.41,3.5-4.98,3.16-10.72-1.82,2.45-3.71,4.33-5.68,5.64,2.14-2.24,3.71-4.76,4.73-7.55.65-2.76.27-8.15-1.16-16.16-.76.85-2.09,2.06-3.97,3.62,4-3.33,5.14-9.53,3.42-18.63-.21-3.92,1.22-8.04,4.27-12.39,1.82-2.62,4.13-4.79,6.9-6.49-1.72-.19-3.48-.48-5.29-.9,2.25.19,4.44.13,6.54-.16,2.01-1.15,3.69-2.33,5.04-3.52,1.78-1.57,5.31-3.25,10.58-5.04,2.64-1.75,5.66-4.21,9.07-7.35,6.34-6.48,11.83-12.2,16.45-17.16,2.26.13,4.3-.48,6.15-1.82.85-1.26,2.47-2,4.88-2.24,1.15,1,2.2,1.19,3.17.55.4-1.46-.09-2.63-1.49-3.5ZM5.27,29.44c-2.37-3.28-2.47-9.66-2.42-13.11.05-3.79.55-6.79,1.38-9.14.87-2.37,2.43-3.57,4.05-3.89,2.89-.56,4.77,1.19,5.87,3.7,1.11,2.55,1.85,6.15,2.07,9.75.28,4.55-.23,9.08-1.19,11.46-.8,1.95-2.45,3.58-4.13,3.77-3.27.36-4.22-.57-5.64-2.53Z"></path><path class="cls-1" d="m123.17,117.77c-9.96,0-14.94-4.52-14.94-13.57s4.98-13.33,14.94-13.33h14.97l.03,11.95h-15c-1.99,0-2.99.46-2.99,1.37,0,1.08,1,1.61,2.99,1.61h5.98c9.96,0,14.94,4.44,14.94,13.33s-4.98,13.57-14.94,13.57h-18.44v-11.95h18.44c1.99,0,2.99-.54,2.99-1.61,0-.92-1-1.37-2.99-1.37h-5.98Z"></path><path class="cls-1" d="m147.11,84.13l23.9,33.65,23.9-32.87.03,47.81h-11.95l-.03-11.95-11.92,17.93-11.98-17.93.03,11.95h-11.95v-38.84l-.03-9.74Z"></path><path class="cls-1" d="m215.83,75.94l20.92,56.77h-26.03l4.54-11.95h5.53l-4.96-14.94-20.77,54.71h-11.65l25.64-67.59,6.78-17Z"></path><path class="cls-1" d="m247.18,117.77c-9.96,0-14.94-4.52-14.94-13.57s4.98-13.33,14.94-13.33h14.97l.03,11.95h-15c-1.99,0-2.99.46-2.99,1.37,0,1.08,1,1.61,2.99,1.61h5.98c9.96,0,14.94,4.44,14.94,13.33s-4.98,13.57-14.94,13.57h-18.44v-11.95h18.44c1.99,0,2.99-.54,2.99-1.61,0-.92-1-1.37-2.99-1.37h-5.98Z"></path><path class="cls-1" d="m309.99,90.88v41.83h-11.95v-14.94h-14.94v14.94h-11.95l-.03-35.86-5.98-5.98h17.96v14.94h14.94l-.03-8.96-5.98-5.98h17.96Z"></path><path class="cls-1" d="m351.76,117.77c-9.96,0-14.94-4.52-14.94-13.57s4.98-13.33,14.94-13.33h14.97l.03,11.95h-15c-1.99,0-2.99.46-2.99,1.37,0,1.08,1,1.61,2.99,1.61h5.98c9.96,0,14.94,4.44,14.94,13.33s-4.98,13.57-14.94,13.57h-18.44v-11.95h18.44c1.99,0,2.99-.54,2.99-1.61,0-.92-1-1.37-2.99-1.37h-5.98Z"></path><path class="cls-1" d="m401.33,131.31c-2.37.94-4.94,1.4-7.71,1.4-5.78,0-10.71-2.04-14.79-6.13s-6.13-9.01-6.13-14.79,2.04-10.71,6.13-14.79c4.08-4.08,9.01-6.13,14.79-6.13s10.71,2.04,14.79,6.13c4.08,4.08,6.13,9.01,6.13,14.79,0,4.6-1.31,8.68-3.91,12.22l21.84,36.51h-13.51l-17.63-29.22Zm-1.37-13.18c1.75-1.75,2.63-3.86,2.63-6.33s-.88-4.58-2.63-6.33c-1.75-1.75-3.87-2.63-6.33-2.63s-4.58.88-6.33,2.63-2.63,3.87-2.63,6.33.88,4.58,2.63,6.33c1.75,1.75,3.86,2.63,6.33,2.63s4.58-.88,6.33-2.63Z"></path><path class="cls-1" d="m429.48,90.88v20.92c0,5.98,1.99,8.96,5.98,8.96s5.98-2.99,5.98-8.96v-14.94l-5.98-5.98h17.93v20.92c0,13.94-5.98,20.92-17.93,20.92s-17.93-6.97-17.93-20.92v-14.94l-5.98-5.98h17.93Z"></path><path class="cls-1" d="m474.3,75.94l20.92,56.77h-26.03l4.54-11.95h5.53l-4.96-14.94-14.94,38.84h-11.65l19.81-51.72,6.78-17Z"></path><path class="cls-1" d="m508.69,90.88c5.78,0,10.71,2.04,14.79,6.13,4.08,4.08,6.13,9.01,6.13,14.79s-2.04,10.71-6.13,14.79c-4.08,4.08-9.01,6.13-14.79,6.13h-14.94v-38.84l-2.99-2.99h17.93Zm-2.99,29.88h2.99c2.47,0,4.58-.88,6.33-2.63,1.75-1.75,2.63-3.86,2.63-6.33s-.88-4.58-2.63-6.33c-1.75-1.75-3.86-2.63-6.33-2.63h-2.99v17.93Z"></path><g><path class="cls-4" d="m132.72,183.43c-5.21,0-7.81-2.36-7.81-7.09s2.6-6.97,7.81-6.97h12.5v6.25h-12.5c-1.04,0-1.56.24-1.56.72,0,.56.52.84,1.56.84h4.69c5.21,0,7.81,2.32,7.81,6.97s-2.6,7.09-7.81,7.09h-12.5v-6.25h12.5c1.04,0,1.56-.28,1.56-.84,0-.48-.52-.72-1.56-.72h-4.69Z"></path><path class="cls-4" d="m165.46,188.04c-2.14,2.14-4.71,3.2-7.73,3.2s-5.6-1.07-7.73-3.2c-2.14-2.14-3.2-4.71-3.2-7.73s1.07-5.6,3.2-7.73c2.14-2.14,4.71-3.2,7.73-3.2s5.6,1.07,7.73,3.2c1.07,1.07,1.88,2.26,2.42,3.56l-5.7,2.67c-.22-.67-.6-1.27-1.14-1.81-.92-.92-2.02-1.38-3.31-1.38s-2.4.46-3.31,1.38c-.92.92-1.38,2.02-1.38,3.31s.46,2.4,1.38,3.31c.92.92,2.02,1.38,3.31,1.38s2.4-.46,3.31-1.38c.5-.5.86-1.06,1.09-1.69l5.73,2.55c-.53,1.3-1.33,2.49-2.41,3.56Z"></path><path class="cls-4" d="m169.43,169.37h6.25v7.81h7.81v-7.81h6.25v21.88h-6.25v-7.81h-7.81v7.81h-6.25v-21.88Z"></path><path class="cls-4" d="m202.24,191.24c-3.02,0-5.6-1.07-7.73-3.2-2.13-2.14-3.2-4.71-3.2-7.73s1.07-5.6,3.2-7.73c2.14-2.14,4.71-3.2,7.73-3.2s5.6,1.07,7.73,3.2c2.14,2.14,3.2,4.71,3.2,7.73s-1.07,5.6-3.2,7.73c-2.13,2.14-4.71,3.2-7.73,3.2Zm3.31-7.62c.92-.92,1.38-2.02,1.38-3.31s-.46-2.4-1.38-3.31c-.92-.92-2.02-1.38-3.31-1.38s-2.4.46-3.31,1.38c-.92.92-1.38,2.02-1.38,3.31s.46,2.4,1.38,3.31c.92.92,2.02,1.38,3.31,1.38s2.4-.46,3.31-1.38Z"></path><path class="cls-4" d="m225.68,191.24c-3.02,0-5.6-1.07-7.73-3.2-2.13-2.14-3.2-4.71-3.2-7.73s1.07-5.6,3.2-7.73c2.14-2.14,4.71-3.2,7.73-3.2s5.6,1.07,7.73,3.2c2.14,2.14,3.2,4.71,3.2,7.73s-1.07,5.6-3.2,7.73c-2.13,2.14-4.71,3.2-7.73,3.2Zm3.31-7.62c.92-.92,1.38-2.02,1.38-3.31s-.46-2.4-1.38-3.31c-.92-.92-2.02-1.38-3.31-1.38s-2.4.46-3.31,1.38c-.92.92-1.38,2.02-1.38,3.31s.46,2.4,1.38,3.31c.92.92,2.02,1.38,3.31,1.38s2.4-.46,3.31-1.38Z"></path><path class="cls-4" d="m238.18,169.37h6.25v15.62h12.5v6.25h-18.75v-21.88Z"></path><path class="cls-4" d="m275.8,191.24c-3.02,0-5.6-1.07-7.73-3.2-2.13-2.14-3.2-4.71-3.2-7.73s1.07-5.6,3.2-7.73c2.14-2.14,4.71-3.2,7.73-3.2s5.6,1.07,7.73,3.2c2.14,2.14,3.2,4.71,3.2,7.73s-1.07,5.6-3.2,7.73c-2.13,2.14-4.71,3.2-7.73,3.2Zm3.31-7.62c.92-.92,1.38-2.02,1.38-3.31s-.46-2.4-1.38-3.31c-.92-.92-2.02-1.38-3.31-1.38s-2.4.46-3.31,1.38c-.92.92-1.38,2.02-1.38,3.31s.46,2.4,1.38,3.31c.92.92,2.02,1.38,3.31,1.38s2.4-.46,3.31-1.38Z"></path><path class="cls-4" d="m307.05,169.37v6.25h-12.5v1.56h12.5v6.25h-12.5v7.81h-6.25v-21.88h18.75Z"></path><path class="cls-4" d="m323.89,188.12l-1.09,3.12h-6.25l7.81-21.88h6.25l7.81,21.88h-6.25l-1.11-3.12h-7.17Zm5.7-6.25l-2.11-6.25-2.06,6.25h4.17Z"></path><path class="cls-4" d="m355.99,188.04c-2.13,2.14-4.71,3.2-7.73,3.2s-5.6-1.07-7.73-3.2c-2.13-2.14-3.2-4.71-3.2-7.73s1.07-5.6,3.2-7.73c2.14-2.14,4.71-3.2,7.73-3.2s5.6,1.07,7.73,3.2c1.07,1.07,1.88,2.26,2.42,3.56l-5.7,2.67c-.22-.67-.6-1.27-1.14-1.81-.92-.92-2.02-1.38-3.31-1.38s-2.4.46-3.31,1.38c-.92.92-1.38,2.02-1.38,3.31s.46,2.4,1.38,3.31c.92.92,2.02,1.38,3.31,1.38s2.4-.46,3.31-1.38c.5-.5.87-1.06,1.09-1.69l5.73,2.55c-.53,1.3-1.33,2.49-2.41,3.56Z"></path><path class="cls-4" d="m364.63,188.12l-1.09,3.12h-6.25l7.81-21.88h6.25l7.81,21.88h-6.25l-1.11-3.12h-7.17Zm5.7-6.25l-2.11-6.25-2.06,6.25h4.17Z"></path><path class="cls-4" d="m380.72,191.24v-21.88h10.94c6.25,0,9.38,3.65,9.38,10.94s-3.12,10.94-9.38,10.94h-10.94Zm6.25-15.62v9.38h4.69c2.08,0,3.12-1.56,3.12-4.69s-1.04-4.69-3.12-4.69h-4.69Z"></path><path class="cls-4" d="m421.35,169.37v6.25h-12.5v1.56h9.38v6.25h-9.38v1.56h12.5v6.25h-18.75v-21.88h18.75Z"></path><path class="cls-4" d="m447.91,169.37v21.88h-6.25v-10.42l-3.12,10.42h-6.25l-3.12-10.38v10.38h-6.25v-21.88h7.81l4.69,12.5,4.69-12.5h7.81Z"></path><path class="cls-4" d="m455.72,169.37v21.88h-6.25v-21.88h6.25Z"></path><path class="cls-4" d="m475.96,188.04c-2.13,2.14-4.71,3.2-7.73,3.2s-5.6-1.07-7.73-3.2c-2.13-2.14-3.2-4.71-3.2-7.73s1.07-5.6,3.2-7.73c2.14-2.14,4.71-3.2,7.73-3.2s5.6,1.07,7.73,3.2c1.07,1.07,1.88,2.26,2.42,3.56l-5.7,2.67c-.22-.67-.6-1.27-1.14-1.81-.92-.92-2.02-1.38-3.31-1.38s-2.4.46-3.31,1.38c-.92.92-1.38,2.02-1.38,3.31s.46,2.4,1.38,3.31c.92.92,2.02,1.38,3.31,1.38s2.4-.46,3.31-1.38c.5-.5.87-1.06,1.09-1.69l5.73,2.55c-.53,1.3-1.33,2.49-2.41,3.56Z"></path><path class="cls-4" d="m487.74,183.43c-5.21,0-7.81-2.36-7.81-7.09s2.6-6.97,7.81-6.97h12.5v6.25h-12.5c-1.04,0-1.56.24-1.56.72,0,.56.52.84,1.56.84h4.69c5.21,0,7.81,2.32,7.81,6.97s-2.6,7.09-7.81,7.09h-12.5v-6.25h12.5c1.04,0,1.56-.28,1.56-.84,0-.48-.52-.72-1.56-.72h-4.69Z"></path></g><polygon class="cls-4" points="397.35 135.43 210.36 135.43 200.84 160.53 412.49 160.53 397.35 135.43"></polygon><g><path class="cls-1" d="m219.92,152.02v5.27h-5.27v-18.46h10.55c4.39,0,6.59,2.2,6.59,6.59s-2.2,6.59-6.59,6.59h-5.27Zm0-7.91v2.64h5.27c.88,0,1.32-.44,1.32-1.32s-.44-1.32-1.32-1.32h-5.27Z"></path><path class="cls-1" d="m242.34,157.3c-2.55,0-4.72-.9-6.53-2.7s-2.7-3.98-2.7-6.53.9-4.72,2.7-6.53,3.98-2.7,6.53-2.7,4.72.9,6.53,2.7,2.7,3.98,2.7,6.53-.9,4.72-2.7,6.53-3.98,2.7-6.53,2.7Zm2.79-6.43c.77-.77,1.16-1.71,1.16-2.79s-.39-2.02-1.16-2.79-1.71-1.16-2.79-1.16-2.02.39-2.79,1.16-1.16,1.71-1.16,2.79.39,2.02,1.16,2.79,1.71,1.16,2.79,1.16,2.02-.39,2.79-1.16Z"></path><path class="cls-1" d="m265.13,148.07l-2.64,9.23h-5.27l-6.59-18.46h5.27l3.96,10.55,2.64-10.55h5.27l2.64,10.55,3.96-10.55h5.27l-6.59,18.46h-5.27l-2.64-9.23Z"></path><path class="cls-1" d="m296.77,138.84v5.27h-10.55v1.32h7.91v5.27h-7.91v1.32h10.55v5.27h-15.82v-18.46h15.82Z"></path><path class="cls-1" d="m303.36,157.3h-5.27v-18.46h10.55c4.39,0,6.59,2.2,6.59,6.59s-1.76,6.59-5.27,6.59l5.27,5.27h-6.59l-5.27-5.27v5.27Zm0-13.18v2.64h5.27c.88,0,1.32-.44,1.32-1.32s-.44-1.32-1.32-1.32h-5.27Z"></path><path class="cls-1" d="m332.37,138.84v5.27h-10.55v1.32h7.91v5.27h-7.91v1.32h10.55v5.27h-15.82v-18.46h15.82Z"></path><path class="cls-1" d="m333.69,157.3v-18.46h9.23c5.27,0,7.91,3.08,7.91,9.23s-2.64,9.23-7.91,9.23h-9.23Zm5.27-13.18v7.91h3.96c1.76,0,2.64-1.32,2.64-3.96s-.88-3.96-2.64-3.96h-3.96Z"></path><path class="cls-1" d="m358.84,157.3v-18.46h9.23c5.27,0,7.91,1.98,7.91,5.95,0,2.19-.88,3.28-2.64,3.28,1.76,0,2.64,1.12,2.64,3.38,0,3.9-2.64,5.85-7.91,5.85h-9.23Zm5.27-11.14h3.96c1.76.03,2.64-.42,2.64-1.34,0-1.01-.88-1.53-2.64-1.56h-3.96v2.9Zm0,6.54h3.96c1.76.03,2.64-.4,2.64-1.29,0-.93-.88-1.41-2.64-1.44h-3.96v2.73Z"></path><path class="cls-1" d="m382.12,149.39l-6.59-10.55h5.63l3.6,5.27,3.6-5.27h5.63l-6.59,10.55v7.91h-5.27v-7.91Z"></path></g></g></svg>